<?xml version="1.0" encoding="utf-8"?>
<!-- Generator: Adobe Illustrator 16.0.0, SVG Export Plug-In . SVG Version: 6.00 Build 0)  -->
<!DOCTYPE svg PUBLIC "-//W3C//DTD SVG 1.1//EN" "http://www.w3.org/Graphics/SVG/1.1/DTD/svg11.dtd">
<svg version="1.1" id="Layer_1" xmlns="http://www.w3.org/2000/svg" xmlns:xlink="http://www.w3.org/1999/xlink" x="0px" y="0px"
	 width="650px" height="450px" viewBox="0 0 650 450" enable-background="new 0 0 650 450" xml:space="preserve">
<rect x="-103.659" y="54.136" fill="none" width="1673.993" height="791.006"/>
<rect x="-841.011" y="90.325" fill="none" width="1673.993" height="791.006"/>
<path fill="#1F401E" d="M412.101,321.737c9.08-1.051,17.962-1.734,26.717-3.182c9.962-1.646,19.796-4.051,29.715-5.971
	c4.709-0.912,9.486-1.488,14.239-2.166c0.878-0.126,1.954-0.305,2.641,0.076c0.74,0.412,1.332,1.396,1.579,2.248
	c0.105,0.364-0.747,1.387-1.296,1.506c-16.995,3.705-33.966,7.545-51.038,10.863c-6.252,1.215-12.751,1.168-19.138,1.684
	c-0.976,0.08-1.957,0.092-3.579,0.162c0.234,5.394,0.563,10.473,0.656,15.557c0.195,10.512,0.231,21.028,0.397,31.541
	c0.184,11.674,1.695,23.146,5.411,34.266c0.189,0.567,0.377,1.139,0.629,1.679c0.113,0.241,0.387,0.408,1.066,1.087
	c1.182-2.002,2.514-3.719,3.29-5.659c3.742-9.352,5.725-19.142,6.835-29.12c0.531-4.772,1.057-9.553,1.321-14.345
	c0.062-1.108-0.649-2.646-1.52-3.355c-5.841-4.761-8.154-10.759-6.617-18.112c0.335-1.602,1.121-3.262,2.143-4.54
	c2.664-3.331,7.206-3.009,9.174,0.788c1.114,2.146,1.688,4.699,1.955,7.13c0.435,3.961,0.419,7.972,0.609,12.319
	c4.45,0.241,8.604-0.928,12.257-3.104c3.487-2.076,7.358-3.742,9.428-7.947c0.578-1.174,4.188-0.877,6.42-1.141
	c0.094-0.012,0.515,1.14,0.456,1.717c-0.166,1.621-0.628,3.217-0.751,4.838c-0.68,8.976-1.211,17.963-1.956,26.932
	c-0.722,8.674-1.778,17.322-2.425,26.001c-0.375,5.034-0.079,10.046,1.016,15.472c0.325,1.616,2.536,1.922,3.277,0.449
	c0.158-0.314,0.287-0.627,0.382-0.951c3.3-11.315,6.862-22.579,9.485-34.056c1.007-4.409-0.586-9.349-0.345-14.015
	c0.442-8.572,2.276-16.991,6.862-24.301c2.478-3.948,6.09-7.389,9.777-10.323c3.963-3.155,10.881-1.938,15.293,1.849
	c3.656,3.136,5.46,9.933,3.289,14.623c-4.815,10.405-11.923,18.463-23.623,21.338c-0.68,0.167-1.346,0.385-2.326,0.668
	c-0.001,7.569,0.926,14.691,7.581,19.771c1.966,1.501,3.685,1.572,5.691,0.088c5.078-3.757,8.083-9.104,11.096-14.403
	c3.808-6.697,7.844-13.327,10.883-20.374c1.756-4.072,1.685-8.918,2.545-13.395c0.563-2.936,1.179-5.878,2.034-8.738
	c0.748-2.496,2.278-4.271,5.31-3.625c2.608,0.557,3.719,2.463,3.596,5.705c-0.581,15.311-1.381,30.646,1.122,45.859
	c0.656,3.996,2.018,7.946,3.577,11.701c1.283,3.088,2.358,3.141,5.006,1.038c5.383-4.276,8.659-10.167,12.026-15.974
	c5.015-8.652,10.02-17.311,15.008-25.978c0.389-0.675,0.417-1.813,0.949-2.091c0.834-0.435,2.482-0.764,2.84-0.34
	c0.664,0.787,1.198,2.402,0.82,3.23c-2.491,5.457-5.042,10.906-7.951,16.148c-4.27,7.693-8.757,15.273-13.371,22.767
	c-1.338,2.173-3.266,4.063-5.194,5.778c-6.244,5.557-14.851,4.486-19.477-2.533c-4.229-6.418-5.765-13.803-6.685-21.294
	c-0.384-3.116-0.318-6.289-0.453-9.437c-0.446-0.098-0.398-0.088-0.844-0.188c-0.98,1.889-1.959,3.777-2.943,5.664
	c-2.82,5.41-5.54,10.877-8.512,16.205c-1.401,2.515-3,5.041-5.006,7.074c-6.391,6.479-16.223,5.387-22.939-2.321
	c-0.71-0.814-1.383-1.661-2.303-2.771c-1.488,6.006-2.798,11.696-4.328,17.326c-1.179,4.334-2.597,8.605-3.996,12.875
	c-0.336,1.026-0.92,2.01-1.555,2.895c-3.979,5.542-11.416,5.227-13.973-1.045c-1.852-4.539-2.997-9.618-3.239-14.516
	c-0.845-17.076,1.485-33.943,4.369-50.733c0.233-1.358,0.537-2.704,0.997-4.997c-5.883,5.617-12.188,8.116-19.856,7.547
	c-0.358,4.363-0.608,8.535-1.06,12.686c-1.18,10.854-2.73,21.661-6.445,31.986c-0.955,2.654-2.432,5.357-4.36,7.379
	c-4.255,4.463-10.596,3.287-13.468-2.197c-4.1-7.827-5.971-16.302-7.09-24.982c-0.134-1.037-0.268-2.074-0.514-3.98
	c-2.62,6.989-4.811,13.158-7.243,19.229c-2.194,5.478-4.528,10.907-7.045,16.243c-1.694,3.597-3.856,7.006-8.656,6.633
	c-3.949-0.309-6.426-3.196-7.821-8.727c-2.324-9.211-1.239-18.525-0.789-27.804c0.476-9.796,1.266-19.575,1.779-29.368
	c0.145-2.76-0.201-5.545-0.355-9.05c-3.964,2.632-6.187,5.587-7.964,8.952c-6.282,11.889-9.679,24.738-12.595,37.751
	c-0.852,3.805-1.785,7.591-2.621,11.398c-0.182,0.827-0.291,1.751-0.114,2.56c0.505,2.312-0.843,3.999-2.897,3.006
	c-1.589-0.77-3.196-2.475-3.812-4.129c-5.464-14.688-7.644-29.791-5.051-45.4c0.095-0.572,0.124-1.156,0.271-2.557
	c-2.879,3.482-5.313,6.354-7.633,9.313c-0.364,0.466-0.292,1.335-0.291,2.018c0.02,8.112-1.674,15.925-4.502,23.458
	c-2.241,5.967-5.869,10.937-12.755,11.801c-7.55,0.947-13.43-2.36-17.024-8.844c-2.322-4.189-3.594-8.96-5.344-13.487
	c-1.74,3.472-3.528,7.317-5.566,11.028c-1.824,3.321-3.613,6.738-5.959,9.682c-5.543,6.953-14.357,7.684-21.303,2.104
	c-5.148-4.137-7.026-7.209-10.902-18.04c-1.668,4.97-3.193,9.556-4.744,14.134c-1.541,4.547-3.06,9.102-4.676,13.621
	c-1.792,5.01-4.341,7.301-7.789,7.186c-4.072-0.137-6.688-2.344-8.252-7.465c-2.44-7.988-2.307-16.268-1.822-24.442
	c0.733-12.376,2.086-24.716,3.106-37.076c0.186-2.244,0.042-4.515,0.052-6.772c-0.58-0.217-0.579-0.217-1.158-0.434
	c-2.679,3.197-5.656,6.193-7.965,9.637c-9.352,13.947-14.05,29.529-15.547,46.148c-0.422,4.682-0.685,9.378-1.054,14.064
	c-0.218,2.764-1.564,3.83-4.125,2.825c-1.477-0.58-3.001-1.712-3.886-3.017c-5.262-7.75-8.119-16.446-9.565-25.645
	c-0.184-1.163-0.313-2.336-1.1-3.673c-1.343,3.429-2.541,6.923-4.06,10.273c-2.753,6.074-5.122,12.442-8.759,17.956
	c-2.538,3.85-6.498,7.245-10.565,9.51c-11.094,6.176-22.281,3.247-30.347-7.619c-10.627-14.314-10.63-29.659-3.565-45.428
	c4.329-9.662,11.06-17.278,19.603-22.425c-3.098-3.653-6.117-7.293-9.252-10.831c-0.468-0.528-1.552-0.945-2.212-0.797
	c-3.502,0.785-7.117,1.393-10.4,2.76c-7.119,2.966-9.955,10.441-7.513,18.405c0.011,0.036,0.021,0.071,0.031,0.108
	c0.418,1.57-1.434,2.818-2.731,1.84c-0.284-0.215-0.524-0.455-0.693-0.736c-4.425-7.359-1.793-18.207,5.698-22.318
	c3.795-2.082,8.139-3.172,12.256-4.652c1.007-0.361,2.096-0.496,3.35-0.78c-1.099-6.912-0.26-13.337,2.994-19.358
	c4.738-8.771,12.203-13.055,22.046-12.961c9.602,0.091,14.768,8.479,10.845,17.211c-4.575,10.186-13.149,15.209-23.357,18.134
	c-0.661,0.189-1.315,0.405-1.949,0.603c0.675,6.051,5.52,10.16,11.328,10.041c2.762-0.057,5.556,0.301,8.289,0.754
	c0.758,0.126,1.982,1.406,1.872,1.91c-0.188,0.86-1.133,1.885-1.994,2.201c-1.95,0.715-4.178,0.736-6.054,1.576
	c-11.061,4.949-17.837,13.998-22.564,24.682c-4.79,10.826-6.107,22.106-1.26,33.215c1.731,3.969,4.955,7.419,7.99,10.641
	c2.433,2.584,5.947,1.981,9.106,1.152c7.349-1.928,12.594-6.906,16.055-13.194c4.858-8.829,8.601-18.264,13.164-27.265
	c3.195-6.304,4.187-13.059,5.385-19.85c0.623-3.528,1.651-7.014,2.829-10.403c0.404-1.163,2.04-2.923,2.718-2.76
	c1.544,0.368,3.461,1.472,4.087,2.808c0.835,1.783,0.898,4.094,0.753,6.139c-0.662,9.279-1.565,18.543-2.278,27.82
	c-0.414,5.401,0.548,10.648,2.033,16.217c1.438-6.967,2.369-13.574,4.199-19.921c4.005-13.888,9.975-26.841,20.321-37.298
	c5.539-5.6,13.174-3.59,14.601,4.229c1.063,5.828,0.954,11.946,0.741,17.912c-0.469,13.1-1.396,26.182-1.995,39.277
	c-0.149,3.265,0.242,6.554,0.386,9.832c0.526,0.135,0.482,0.123,1.01,0.258c0.78-1.277,1.779-2.469,2.311-3.843
	c4.294-11.097,8.707-22.157,12.605-33.395c1.143-3.295,0.557-7.153,1.094-10.702c0.952-6.289,2.754-12.301,6.741-17.451
	c7.354-9.498,20.487-7.813,24.895,3.445c1.185,3.027,1.148,6.602,1.283,9.939c0.077,1.91-1.364,3.367-3.351,2.793
	c-0.798-0.23-1.516-1.989-1.625-3.115c-0.373-3.801-0.516-7.613-3-10.813c-2.781-3.583-5.445-3.744-8.391-0.337
	c-4.424,5.118-6.174,11.377-7.145,17.867c-1.152,7.714-0.994,15.475,1.449,22.885c1.107,3.355,3.453,6.379,5.598,9.293
	c1.553,2.109,4.486,2.621,6.675,1.179c1.988-1.31,4.174-2.807,5.385-4.771c5.294-8.586,10.313-17.34,15.302-26.108
	c0.5-0.879,0.336-2.31,0.104-3.403c-1.775-8.388-1.019-16.559,2.265-24.422c4.348-10.414,14.778-13.109,24.232-6.932
	c7.712,5.039,10.139,12.779,12.162,20.925c0.262,1.054,0.417,2.134,0.794,4.099c3.829-5.443,8.972-8.962,10.754-15.092
	c0.807-2.778,1.789-5.514,2.854-8.204c0.714-1.8,1.959-3.103,4.184-2.407c2.179,0.682,2.877,2.237,2.58,4.43
	c-0.898,6.641-2.071,13.265-2.543,19.938c-0.645,9.105-0.746,18.251-1.078,27.379c0.667,0.104,0.448,0.069,1.116,0.172
	c1.2-4.486,2.098-9.082,3.668-13.436c2.741-7.606,5.602-15.201,9.012-22.52c1.511-3.245,4.227-6.072,6.852-8.619
	c3.977-3.861,9.521-2.717,11.759,2.369c1.107,2.516,1.944,5.365,2.009,8.086c0.23,9.789,0.107,19.586,0.068,29.381
	c-0.042,10.091-0.15,20.182-0.2,30.273c-0.003,0.563,0.257,1.127,0.577,2.438c1.203-1.533,2.352-2.508,2.882-3.746
	c5.145-12.03,10.202-24.098,15.25-36.168c2.563-6.127,2.937-12.539,2.821-19.121c-0.183-10.408,0.097-20.823,0.168-31.236
	c0.003-0.474-0.116-0.949-0.189-1.5c-8.815-0.468-17.498-0.791-26.158-1.422c-11.676-0.852-23.327-2.016-35-2.91
	c-15.406-1.181-30.59,0.226-45.51,4.309c-0.772,0.211-1.56,0.614-2.316,0.566c-0.682-0.043-1.783-0.479-1.889-0.931
	c-0.155-0.669,0.181-1.911,0.7-2.198c1.911-1.055,3.922-2.023,6.007-2.656c16.572-5.032,33.516-5.083,50.596-3.842
	c17.166,1.246,34.357,2.157,51.533,3.277c2.05,0.133,2.638-0.689,2.611-2.576c-0.035-2.5-0.012-5.016,0.251-7.496
	c0.11-1.049,0.938-2.898,1.363-2.877c1.356,0.068,3.313,0.469,3.876,1.426c1.176,2,1.701,4.411,2.309,6.702
	C411.794,318.124,411.83,319.636,412.101,321.737 M323.193,366.624c0.274-0.018,0.549-0.033,0.823-0.051
	c-1.324-5.516-2.33-11.135-4.071-16.517c-1.485-4.593-4.856-8.142-9.856-8.521c-5.177-0.393-8.647,2.871-10.382,7.567
	c-1.165,3.151-1.759,6.519-2.503,9.813c-0.136,0.601,0.156,1.339,0.375,1.972c0.752,2.176,1.939,4.278,2.26,6.509
	c0.525,3.648,0.468,7.379,0.711,11.072c0.365,5.543,4.464,8.205,9.323,5.549c3.448-1.885,6.377-4.73,9.509-7.184
	C322.677,374.254,324.627,371.106,323.193,366.624 M483.916,369.982c1.194-0.29,1.688-0.36,2.147-0.528
	c9.492-3.479,14.818-10.924,18.351-19.832c0.688-1.736,0.237-4.192-0.352-6.113c-1.542-5.025-4.623-5.787-8.431-2.234
	C487.448,348.913,485.896,359.225,483.916,369.982 M139.927,331.604c4.663-1.76,9.296-3.716,12.439-7.492
	c2.87-3.447,5.165-7.518,6.998-11.631c1.215-2.729-0.184-3.884-3.132-3.469C147.084,310.3,138.44,322.085,139.927,331.604
	 M322.58,380.245c-9.981,9-12.273,9.883-21.062,7.977c1.212,3.225,2.047,6.162,3.383,8.852c2.759,5.551,7.358,5.946,11.158,0.98
	C319.916,393.015,321.22,386.987,322.58,380.245 M431.282,339.722c-1.822,3.983-1.396,8.519,0.483,11.079
	C431.608,347.218,431.445,343.47,431.282,339.722"/>
<path fill="#1F401E" d="M531.665,324.569c-3.12,0.538-5.017-2.317-7.252-4.494c-0.246-0.239-0.076-1.228,0.217-1.646
	c2.709-3.869,9.391-3.16,11.373,1.167C537.206,322.224,535.378,324.708,531.665,324.569"/>
<path fill="#F0F7EC" d="M408.688,318.323c9.079-1.05,17.961-1.733,26.717-3.181c9.961-1.646,19.795-4.05,29.714-5.971
	c4.71-0.912,9.486-1.488,14.239-2.166c0.877-0.126,1.954-0.306,2.641,0.077c0.74,0.412,1.332,1.395,1.58,2.247
	c0.105,0.364-0.748,1.388-1.297,1.507c-16.995,3.703-33.966,7.545-51.038,10.862c-6.252,1.215-12.751,1.168-19.138,1.685
	c-0.976,0.079-1.957,0.09-3.579,0.162c0.235,5.393,0.563,10.472,0.657,15.555c0.194,10.514,0.23,21.029,0.396,31.543
	c0.184,11.673,1.695,23.146,5.412,34.266c0.189,0.566,0.376,1.139,0.629,1.678c0.112,0.242,0.386,0.408,1.065,1.088
	c1.183-2.002,2.514-3.721,3.29-5.66c3.742-9.352,5.725-19.143,6.836-29.119c0.53-4.773,1.056-9.554,1.32-14.346
	c0.062-1.107-0.65-2.646-1.52-3.355c-5.84-4.762-8.154-10.759-6.617-18.111c0.335-1.603,1.121-3.262,2.143-4.541
	c2.664-3.331,7.206-3.009,9.174,0.787c1.113,2.147,1.689,4.701,1.955,7.131c0.436,3.961,0.42,7.971,0.609,12.32
	c4.45,0.24,8.604-0.93,12.256-3.104c3.488-2.077,7.359-3.742,9.43-7.949c0.577-1.173,4.187-0.876,6.418-1.14
	c0.096-0.012,0.516,1.14,0.457,1.717c-0.166,1.622-0.627,3.217-0.75,4.839c-0.681,8.975-1.212,17.962-1.957,26.931
	c-0.721,8.675-1.777,17.322-2.424,26.001c-0.375,5.035-0.08,10.046,1.015,15.473c0.325,1.615,2.536,1.922,3.277,0.449
	c0.158-0.315,0.288-0.628,0.382-0.951c3.3-11.316,6.862-22.58,9.485-34.057c1.007-4.41-0.586-9.35-0.345-14.014
	c0.443-8.574,2.276-16.992,6.861-24.301c2.479-3.949,6.092-7.39,9.777-10.324c3.964-3.155,10.883-1.938,15.295,1.848
	c3.655,3.137,5.459,9.934,3.288,14.625c-4.815,10.404-11.923,18.463-23.624,21.337c-0.678,0.167-1.344,0.386-2.326,0.669
	c0,7.568,0.927,14.689,7.582,19.771c1.967,1.5,3.686,1.571,5.691,0.087c5.078-3.757,8.083-9.104,11.096-14.403
	c3.809-6.697,7.844-13.328,10.883-20.375c1.756-4.07,1.686-8.917,2.545-13.393c0.564-2.938,1.179-5.879,2.035-8.738
	c0.747-2.497,2.277-4.271,5.309-3.625c2.609,0.557,3.719,2.462,3.596,5.705c-0.58,15.311-1.381,30.646,1.122,45.859
	c0.657,3.995,2.019,7.945,3.577,11.7c1.283,3.089,2.359,3.142,5.006,1.038c5.383-4.276,8.66-10.167,12.025-15.974
	c5.016-8.652,10.021-17.31,15.01-25.978c0.388-0.675,0.416-1.813,0.949-2.09c0.833-0.436,2.481-0.764,2.839-0.341
	c0.664,0.787,1.198,2.401,0.82,3.231c-2.491,5.457-5.042,10.906-7.951,16.147c-4.27,7.694-8.757,15.272-13.37,22.767
	c-1.338,2.174-3.267,4.063-5.195,5.779c-6.244,5.556-14.851,4.486-19.477-2.534c-4.229-6.417-5.765-13.803-6.685-21.294
	c-0.384-3.117-0.318-6.289-0.453-9.436c-0.446-0.1-0.397-0.088-0.844-0.188c-0.98,1.887-1.959,3.776-2.942,5.663
	c-2.821,5.411-5.541,10.878-8.512,16.204c-1.402,2.516-3.002,5.043-5.006,7.076c-6.391,6.478-16.223,5.387-22.939-2.322
	c-0.711-0.814-1.384-1.661-2.303-2.77c-1.489,6.005-2.799,11.695-4.329,17.326c-1.179,4.334-2.597,8.604-3.995,12.874
	c-0.336,1.026-0.92,2.01-1.556,2.894c-3.979,5.543-11.415,5.228-13.973-1.045c-1.852-4.539-2.997-9.617-3.239-14.516
	c-0.844-17.074,1.484-33.942,4.369-50.732c0.234-1.358,0.537-2.705,0.997-4.998c-5.884,5.618-12.188,8.117-19.856,7.549
	c-0.357,4.362-0.607,8.534-1.06,12.684c-1.18,10.855-2.731,21.662-6.444,31.987c-0.955,2.655-2.433,5.357-4.361,7.38
	c-4.255,4.462-10.596,3.287-13.468-2.197c-4.1-7.828-5.97-16.303-7.09-24.982c-0.134-1.037-0.268-2.074-0.514-3.981
	c-2.62,6.989-4.81,13.158-7.243,19.229c-2.194,5.477-4.528,10.908-7.045,16.244c-1.694,3.596-3.856,7.004-8.656,6.631
	c-3.949-0.307-6.426-3.195-7.821-8.727c-2.325-9.211-1.239-18.525-0.789-27.803c0.476-9.795,1.267-19.574,1.779-29.369
	c0.145-2.759-0.201-5.544-0.354-9.049c-3.965,2.631-6.188,5.588-7.965,8.952c-6.281,11.889-9.679,24.738-12.594,37.751
	c-0.853,3.805-1.785,7.591-2.622,11.398c-0.182,0.826-0.291,1.751-0.114,2.56c0.506,2.312-0.843,3.999-2.896,3.007
	c-1.59-0.77-3.197-2.475-3.813-4.129c-5.463-14.688-7.645-29.791-5.051-45.4c0.096-0.572,0.125-1.156,0.271-2.557
	c-2.878,3.482-5.312,6.354-7.632,9.313c-0.365,0.466-0.293,1.336-0.291,2.018c0.019,8.113-1.674,15.925-4.504,23.459
	c-2.24,5.967-5.868,10.936-12.754,11.8c-7.55,0.948-13.43-2.36-17.023-8.844c-2.322-4.189-3.596-8.96-5.345-13.487
	c-1.739,3.473-3.528,7.318-5.565,11.027c-1.824,3.322-3.613,6.74-5.96,9.683c-5.543,6.953-14.356,7.685-21.302,2.104
	c-5.148-4.137-7.027-7.21-10.903-18.04c-1.667,4.971-3.192,9.557-4.744,14.135c-1.541,4.547-3.06,9.102-4.676,13.621
	c-1.792,5.01-4.341,7.301-7.789,7.185c-4.072-0.136-6.688-2.343-8.252-7.465c-2.44-7.987-2.306-16.269-1.821-24.442
	c0.732-12.376,2.084-24.715,3.105-37.076c0.186-2.244,0.041-4.516,0.052-6.773c-0.579-0.216-0.579-0.216-1.158-0.433
	c-2.679,3.196-5.655,6.194-7.965,9.638c-9.352,13.945-14.05,29.528-15.546,46.147c-0.422,4.683-0.686,9.378-1.055,14.065
	c-0.217,2.764-1.564,3.83-4.125,2.824c-1.477-0.58-3.001-1.712-3.886-3.016c-5.262-7.75-8.118-16.447-9.565-25.645
	c-0.183-1.164-0.313-2.336-1.1-3.674c-1.343,3.43-2.541,6.924-4.06,10.273c-2.753,6.074-5.122,12.442-8.759,17.957
	c-2.539,3.849-6.498,7.244-10.565,9.508c-11.095,6.177-22.281,3.248-30.348-7.618c-10.626-14.315-10.63-29.659-3.565-45.427
	c4.329-9.663,11.06-17.279,19.603-22.426c-3.098-3.654-6.118-7.293-9.252-10.83c-0.468-0.529-1.552-0.946-2.212-0.799
	c-3.502,0.787-7.117,1.394-10.4,2.762c-7.119,2.965-9.955,10.44-7.513,18.404c0.01,0.035,0.021,0.072,0.03,0.107
	c0.419,1.572-1.433,2.82-2.73,1.841c-0.283-0.214-0.524-0.454-0.693-0.737c-4.425-7.358-1.792-18.206,5.698-22.316
	c3.795-2.082,8.139-3.173,12.256-4.653c1.007-0.362,2.096-0.495,3.351-0.78c-1.099-6.912-0.261-13.336,2.993-19.359
	c4.739-8.77,12.204-13.053,22.047-12.959c9.601,0.09,14.767,8.477,10.845,17.209c-4.575,10.188-13.149,15.21-23.357,18.135
	c-0.661,0.189-1.314,0.406-1.949,0.603c0.675,6.052,5.52,10.16,11.329,10.042c2.762-0.057,5.556,0.301,8.289,0.754
	c0.758,0.125,1.983,1.404,1.873,1.91c-0.188,0.859-1.133,1.885-1.995,2.2c-1.949,0.716-4.179,0.736-6.054,1.575
	c-11.061,4.949-17.837,14-22.564,24.683c-4.789,10.825-6.107,22.106-1.26,33.216c1.731,3.967,4.955,7.418,7.99,10.641
	c2.433,2.583,5.947,1.98,9.106,1.152c7.349-1.929,12.594-6.908,16.055-13.195c4.858-8.828,8.601-18.264,13.164-27.265
	c3.195-6.304,4.187-13.059,5.386-19.849c0.623-3.529,1.651-7.014,2.828-10.404c0.404-1.163,2.041-2.922,2.719-2.76
	c1.543,0.369,3.46,1.471,4.086,2.809c0.835,1.782,0.898,4.092,0.753,6.139c-0.662,9.279-1.565,18.543-2.278,27.819
	c-0.415,5.401,0.549,10.647,2.033,16.216c1.438-6.966,2.369-13.572,4.199-19.92c4.005-13.887,9.975-26.84,20.321-37.298
	c5.539-5.6,13.174-3.589,14.601,4.229c1.063,5.827,0.955,11.945,0.741,17.912c-0.469,13.099-1.396,26.182-1.995,39.277
	c-0.148,3.264,0.242,6.553,0.386,9.831c0.526,0.134,0.483,0.124,1.01,0.258c0.78-1.276,1.779-2.469,2.312-3.843
	c4.293-11.098,8.707-22.156,12.604-33.395c1.144-3.295,0.557-7.152,1.095-10.703c0.951-6.287,2.754-12.299,6.74-17.449
	c7.354-9.499,20.487-7.813,24.895,3.445c1.186,3.025,1.148,6.601,1.283,9.938c0.078,1.91-1.363,3.367-3.351,2.792
	c-0.798-0.229-1.515-1.988-1.626-3.113c-0.372-3.802-0.514-7.613-2.998-10.814c-2.781-3.584-5.446-3.744-8.391-0.336
	c-4.425,5.117-6.175,11.376-7.145,17.867c-1.153,7.713-0.994,15.475,1.449,22.885c1.106,3.355,3.452,6.379,5.597,9.291
	c1.554,2.111,4.487,2.623,6.675,1.18c1.988-1.311,4.174-2.807,5.385-4.771c5.293-8.585,10.314-17.34,15.302-26.108
	c0.5-0.879,0.336-2.309,0.104-3.403c-1.777-8.388-1.02-16.558,2.264-24.422c4.348-10.414,14.779-13.108,24.232-6.931
	c7.713,5.039,10.139,12.778,12.162,20.924c0.262,1.055,0.418,2.135,0.794,4.1c3.829-5.443,8.972-8.963,10.754-15.094
	c0.808-2.777,1.788-5.513,2.854-8.203c0.714-1.8,1.959-3.102,4.184-2.406c2.18,0.682,2.877,2.236,2.58,4.43
	c-0.898,6.64-2.07,13.264-2.543,19.936c-0.645,9.107-0.746,18.252-1.078,27.381c0.668,0.104,0.449,0.068,1.116,0.172
	c1.2-4.486,2.099-9.083,3.668-13.437c2.741-7.606,5.602-15.2,9.012-22.521c1.511-3.244,4.228-6.071,6.852-8.619
	c3.978-3.859,9.521-2.715,11.759,2.37c1.107,2.516,1.944,5.366,2.009,8.085c0.231,9.789,0.108,19.588,0.067,29.383
	c-0.041,10.09-0.149,20.182-0.199,30.272c-0.003,0.563,0.258,1.128,0.577,2.438c1.204-1.534,2.352-2.509,2.882-3.747
	c5.145-12.03,10.202-24.097,15.25-36.167c2.563-6.128,2.937-12.539,2.821-19.122c-0.183-10.407,0.097-20.823,0.168-31.235
	c0.003-0.475-0.116-0.949-0.188-1.501c-8.816-0.468-17.499-0.79-26.159-1.422c-11.675-0.851-23.327-2.015-34.999-2.909
	c-15.407-1.182-30.591,0.225-45.511,4.309c-0.772,0.211-1.56,0.613-2.316,0.566c-0.682-0.043-1.783-0.479-1.888-0.932
	c-0.156-0.669,0.18-1.911,0.699-2.197c1.912-1.055,3.922-2.023,6.007-2.656c16.573-5.033,33.517-5.084,50.597-3.843
	c17.166,1.246,34.356,2.157,51.532,3.277c2.05,0.134,2.638-0.688,2.611-2.576c-0.035-2.499-0.012-5.015,0.251-7.496
	c0.111-1.05,0.938-2.899,1.363-2.878c1.356,0.07,3.314,0.471,3.877,1.428c1.175,1.999,1.701,4.41,2.309,6.701
	C408.381,314.712,408.417,316.223,408.688,318.323 M319.78,363.211c0.274-0.017,0.549-0.034,0.824-0.051
	c-1.325-5.517-2.331-11.135-4.072-16.517c-1.486-4.592-4.856-8.141-9.856-8.521c-5.177-0.393-8.647,2.871-10.382,7.567
	c-1.164,3.151-1.758,6.52-2.503,9.814c-0.136,0.6,0.156,1.338,0.375,1.971c0.753,2.176,1.94,4.278,2.261,6.51
	c0.524,3.648,0.467,7.379,0.71,11.07c0.366,5.543,4.464,8.207,9.323,5.551c3.448-1.887,6.377-4.73,9.509-7.184
	C319.264,370.841,321.214,367.694,319.78,363.211 M480.503,366.569c1.194-0.289,1.688-0.359,2.147-0.527
	c9.492-3.479,14.818-10.924,18.351-19.833c0.688-1.735,0.237-4.192-0.352-6.112c-1.541-5.025-4.623-5.788-8.431-2.234
	C484.035,345.501,482.482,355.812,480.503,366.569 M136.515,328.191c4.663-1.76,9.296-3.716,12.439-7.492
	c2.87-3.446,5.165-7.517,6.998-11.631c1.215-2.729-0.184-3.884-3.133-3.469C143.671,306.887,135.027,318.673,136.515,328.191
	 M319.167,376.833c-9.981,9-12.273,9.883-21.061,7.976c1.211,3.224,2.046,6.163,3.383,8.853c2.758,5.551,7.357,5.945,11.158,0.979
	C316.503,389.602,317.808,383.573,319.167,376.833 M427.869,336.31c-1.823,3.982-1.396,8.518,0.483,11.078
	C428.196,343.806,428.032,340.058,427.869,336.31"/>
<path fill="#F0F7EC" d="M528.252,321.157c-3.12,0.537-5.017-2.318-7.252-4.495c-0.245-0.239-0.076-1.228,0.218-1.647
	c2.709-3.868,9.391-3.16,11.373,1.168C533.793,318.811,531.965,321.296,528.252,321.157"/>
<path fill-rule="evenodd" clip-rule="evenodd" fill="#F0F7EC" d="M266.228,110.636c0,16.884,11.661,37.124,20.843,51.291
	c15.23,23.497,34.334,45.578,51.753,67.377l51.158-67.588c9.868-15.035,19.564-33.03,20.641-51.337
	c2.342-39.88-31.315-75.354-72.695-74.711C295.003,36.334,266.228,68.31,266.228,110.636"/>
<path fill-rule="evenodd" clip-rule="evenodd" fill="#1F401E" d="M338.823,233.331c9.549-11.24,17.084-20.447,23.481-27.984
	c16.681,3.758,29.271,12.342,29.271,20.745c0,12.241-24.016,22.165-53.641,22.165c-29.624,0-53.64-9.924-53.64-22.165
	c0-8.491,13.948-16.987,30.916-20.709C323.214,214.864,332.905,226.104,338.823,233.331"/>
<path fill="#1F401E" d="M370.112,128.892c-0.721-0.297-1.552,0.03-1.898,0.728c-3.706,7.448-6.834,15.201-10.84,22.476
	c-2.986,5.423-7.512,9.716-13.854,11.378c-2.727,0.715-5.759,1.234-7.858-0.993c-2.62-2.778-5.401-5.754-6.896-9.176
	c-4.184-9.579-3.046-19.307,1.088-28.643c4.078-9.213,9.927-17.017,19.471-21.285c1.618-0.724,3.542-0.742,5.225-1.358
	c0.743-0.272,1.559-1.156,1.721-1.898c0.096-0.435-0.962-1.539-1.616-1.647c-2.357-0.391-4.769-0.699-7.152-0.65
	c-5.013,0.103-9.193-3.44-9.775-8.659c0.548-0.169,1.111-0.356,1.682-0.52c8.81-2.522,16.208-6.854,20.156-15.638
	c3.385-7.53-1.073-14.763-9.358-14.841c-8.494-0.081-14.937,3.613-19.025,11.177c-2.807,5.192-3.531,10.732-2.583,16.693
	c-1.082,0.245-2.021,0.361-2.891,0.673c-3.553,1.277-7.301,2.217-10.576,4.012c-6.464,3.545-8.735,12.9-4.917,19.246
	c0.146,0.244,0.354,0.451,0.599,0.636c1.12,0.844,2.717-0.232,2.356-1.586c-0.009-0.032-0.018-0.063-0.027-0.094
	c-2.106-6.867,0.34-13.314,6.482-15.871c2.834-1.18,5.953-1.703,8.976-2.381c0.569-0.128,1.505,0.231,1.909,0.688
	c2.705,3.051,5.311,6.189,7.984,9.34c-7.373,4.438-13.18,11.006-16.916,19.338c-6.097,13.598-6.094,26.829,3.076,39.174
	c6.961,9.37,16.614,11.895,26.188,6.568c3.51-1.951,6.928-4.88,9.117-8.199c3.139-4.756,5.184-10.246,7.559-15.484
	c1.311-2.888,2.345-5.902,3.504-8.859C372.374,130.468,371.216,129.347,370.112,128.892 M351.392,64.332
	c2.544-0.357,3.752,0.638,2.702,2.99c-1.582,3.548-3.562,7.058-6.038,10.031c-2.712,3.256-6.71,4.943-10.734,6.46
	C336.038,75.604,343.497,65.441,351.392,64.332"/>
<path fill="#72C163" d="M367.089,125.87c-0.721-0.296-1.552,0.031-1.898,0.728c-3.706,7.448-6.834,15.202-10.84,22.476
	c-2.986,5.422-7.512,9.716-13.854,11.378c-2.726,0.715-5.759,1.234-7.858-0.992c-2.619-2.779-5.4-5.756-6.895-9.178
	c-4.184-9.578-3.046-19.307,1.087-28.642c4.079-9.212,9.927-17.017,19.472-21.284c1.619-0.724,3.542-0.742,5.225-1.359
	c0.743-0.272,1.558-1.156,1.721-1.897c0.096-0.436-0.963-1.539-1.616-1.647c-2.357-0.391-4.769-0.698-7.152-0.65
	c-5.013,0.102-9.194-3.441-9.775-8.659c0.547-0.17,1.111-0.357,1.682-0.52c8.81-2.522,16.208-6.854,20.156-15.638
	c3.384-7.531-1.073-14.763-9.358-14.841c-8.494-0.08-14.937,3.613-19.025,11.176c-2.808,5.193-3.531,10.733-2.583,16.694
	c-1.083,0.245-2.022,0.36-2.891,0.673c-3.553,1.277-7.302,2.217-10.576,4.012c-6.464,3.544-8.735,12.899-4.918,19.246
	c0.147,0.244,0.354,0.45,0.6,0.635c1.12,0.844,2.717-0.231,2.355-1.586c-0.008-0.031-0.017-0.063-0.026-0.094
	c-2.107-6.868,0.34-13.314,6.482-15.871c2.834-1.18,5.953-1.703,8.975-2.381c0.57-0.128,1.506,0.231,1.91,0.688
	c2.704,3.051,5.311,6.188,7.984,9.34c-7.373,4.438-13.181,11.005-16.916,19.338c-6.097,13.598-6.094,26.829,3.076,39.173
	c6.961,9.37,16.614,11.896,26.188,6.57c3.51-1.952,6.927-4.88,9.117-8.2c3.139-4.755,5.183-10.246,7.559-15.484
	c1.311-2.889,2.345-5.902,3.503-8.859C369.351,127.447,368.192,126.325,367.089,125.87 M348.367,61.311
	c2.545-0.358,3.753,0.637,2.703,2.991c-1.581,3.547-3.562,7.057-6.038,10.03c-2.712,3.257-6.711,4.943-10.734,6.461
	C333.015,72.583,340.474,62.42,348.367,61.311"/>
<rect x="-401.421" y="-964.688" fill="none" width="3347.985" height="1582.013"/>
</svg>
